<svg xmlns="http://www.w3.org/2000/svg" xmlns:xlink="http://www.w3.org/1999/xlink" id="Layer_1" width="758" height="359" x="0" y="0" enable-background="new 0 0 758 359" version="1.1" viewBox="0 0 758 359" xml:space="preserve"><path fill="#636466" d="M745.182,308.116c0.851-0.068,1.997-0.829,2.715-0.141	c-0.519,1.233-1.453,2.427-2.715,2.996c-0.595,0.267-1.373,0.17-1.997,0.43c-1.187,0.49-1.815,1.723-2.857,2.57	c-0.983,0.8-2.273,1.481-3.283,2.142c-0.974,0.634-2.381,1.925-3.569,0.998c0.09-1.673,1.871-1.651,2.286-2.999	c-0.004-0.999-0.889-1.11-0.858-2.143c1.982-1.733,5.093-2.98,5.566-6.564c0.213-1.586-1.074-4.993,0.857-5.141	c2.271-0.173,0.988,2.285,1.144,3.569c0.061,0.518,0.591,0.868,0.854,1.571C743.797,306.656,743.758,307.792,745.182,308.116" enable-background="new" opacity=".75"/><path fill="#636466" d="M731.334,316.683c-0.797,2.383-4.265,3.63-6.568,5.141	c-0.707,0.466-1.283,1.518-2.142,1.854c-1.114,0.439-2.38,0.299-3.569,0.857c-1.882,0.888-3.299,2.621-4.997,3.714	c-1.659,1.067-4.081,2.567-5.995,2.711c-2.112,0.159-6.014-1.2-3.425-3.14c1.121-0.841,3.497-1.821,4.712-2.427	c4.06-2.037,9.77-3.407,13.134-5.854c1.9-1.381,3.619-2.849,5.426-3.998C728.807,314.967,730.328,316.513,731.334,316.683" enable-background="new" opacity=".75"/><path fill="#636466" d="M706.635,221.173c0.458-0.123,0.443,0.224,0.714,0.285	c-0.169,2.041-1.396,3.375-3.998,3.14c-1.164-0.104-3.198-0.977-3.28-1.568C699.774,220.98,705.33,222.244,706.635,221.173" enable-background="new" opacity=".75"/><path fill="#636466" d="M699.641,230.882c1.027,0.292,5.613,3.533,4.139,4.993	c-0.804,0.8-1.831-0.425-3.14-0.71c-1.745-0.386-3.086,0.079-4.283-0.858c-1.355-1.064-1.688-3.382-3.14-4.712	c-0.736-0.671-2.683-1.572-3.999-1.428c-2.265,0.245-2.242,2.845-4.282,3.999c-1.951-0.213-3.1,0.357-4.568-0.145	c-1.546-0.526-2.318-2.527-3.713-2.711c-1.453-0.195-4.889,2.34-5.426,0.144c-0.433-1.777,2.398-2.361,2.57-3.569	c0.181-1.24-1.11-3.169-1.713-3.713c-0.598-0.541-1.438-0.584-2.142-0.999c-0.727-0.436-1.298-1.272-2.141-1.716	c-2.993-1.557-7.561-0.923-8.711-3.425c-0.201-0.443,0.112-0.93-0.141-1.568c-0.313-0.786-1.46-1.035-1.856-1.716	c-1.013-1.738-0.307-4.312,1.428-4.568c1.562-0.231,4.639,1.695,4.997,2.855c0.188,0.613-0.13,1.298,0,2.001	c0.158,0.844,1.424,2.903,2.57,2.996c1.479,0.123,2.347-2.163,3.71-2.996c0.94-0.576,2.481-1.24,3.713-1.142	c1.215,0.094,2.03,1.046,3.425,1.569c0.999,0.375,2.243,0.523,3.429,0.858c1.031,0.292,1.933,0.897,2.996,1.283	c3.396,1.23,7.441,1.954,9.28,4.143c0.501,0.594,0.486,1.481,1.144,2.141c0.604,0.606,3.907,1.204,3.997,2.571	c0.068,1.038-1.362,1.099-1.428,2.141C696.227,228.679,699.144,228.553,699.641,230.882" enable-background="new" opacity=".75"/><path fill="#636466" d="M702.211,274.995c0.285,1.425-0.746,2.401-1.002,3.569	c-0.307,1.417-0.004,3.249-0.569,4.712c-0.663,1.717-2.293,3.403-3.569,5.566c-1.047,1.777-2.47,3.778-3.998,4.997	c-0.901,0.721-1.976,1.14-2.855,1.857c-1.37,1.118-2.487,2.56-3.71,3.854c-1.287,1.362-2.848,2.4-3.858,3.569	c-1.466,1.697-2.198,4.438-4.708,4.712c-1.471,0.162-2.791,0.032-4.142,0.569c-2.116,0.844-3.516,2.391-4.567,2.43	c-1.104,0.036-2.125-1.298-3.141-1.428c-1.143-0.147-2.04,0.865-3.713,0.854c-0.678-0.003-1.024-0.403-1.998-0.714	c-2.036-0.648-4.279-0.62-4.567-2.855c-0.163-1.215,0.775-1.763,0.713-2.854c-0.065-1.089-1.131-1.363-1.571-2.286	c0.28-0.984,0.328-2.225-0.714-2.855c-0.036-0.891,0.188-1.522,0.57-1.997c-0.829,0.353-1.918,0.573-2.855,1.143	c-1.038,0.631-1.788,2.069-2.996,1.856c-1.125-0.396-0.264-1.517-0.429-2.426c-0.128-0.692-1.702-3.645-2.427-4.143	c-0.826-0.562-3.847-1.698-4.856-1.857c-4.409-0.688-7.222,1.669-10.707,2.001c-0.894,0.083-1.871-0.148-2.711,0	c-2.866,0.505-6.065,2.783-7.853,4.283c-2.953,0.292-5.949-0.606-8.995,0.284c-3.024,0.884-4.762,3.407-9.42,2.711	c-0.923-0.793-2.563-1.185-2.57-2.566c-0.009-1.089,1.615-1.796,2.142-2.57c0.565-0.833,1.528-2.798,1.567-3.998	c0.032-0.948-0.638-2.084-0.569-3.285c0.055-0.93,0.577-1.932,0.569-2.854c-0.007-1.263-0.796-2.376-0.998-3.71	c-0.072-0.483,0.068-1.108,0-1.716c-0.098-0.888-0.534-1.619-0.43-2.142c0.195-0.945,1.299-1.046,1.572-1.858	c0.451-1.329-0.548-1.542-0.57-3.139c-0.018-1.129,0.855-1.68,1.429-3.141c0.263-0.681,0.273-1.942,0.569-2.426	c0.371-0.609,1.95-1.125,2.57-1.428c2.189-1.075,3.94-3.071,6.139-3.425c0.56-0.094,1.317,0.068,1.714,0	c1.294-0.227,2.924-1.312,4.712-1.716c1.731-0.39,3.267-0.245,4.567-0.999c1.432-0.825,3.461-2.992,3.998-4.283	c0.649-1.569,0.462-2.895,1.713-3.425c0.616-0.263,1.219,0.021,1.857-0.145c0.66-0.169,2.08-0.847,2.566-1.283	c0.996-0.891,1.161-2.351,2.286-3.284c0.779-0.645,2.246-1.633,3.284-2.142c0.613-0.303,1.745-0.62,2.282-0.569	c2.012,0.173,2.953,2.978,5.142,2.426c0.782-0.198,1.579-1.863,2.285-2.855c1.031-1.456,1.781-3.417,3.569-3.856	c1.441-0.351,3.061,0.558,3.854-0.711c0.176-0.901-0.675-1.442,0-2.001c1.661,0.105,4.478,2.351,6.993,2.426	c1.352,0.044,3.872-1.478,4.143,0.574c0.118,0.908-1.017,1.64-1.287,2.57c-0.19,0.657,0.285,1.01-0.141,1.713	c-1.161,0.457-2.393,0.699-2.43,1.997c-0.039,1.626,2.308,2.394,3.714,3.284c0.962,0.609,1.769,1.547,2.285,1.857	c0.435,0.26,1.136,0.382,1.428,0.569c0.923,0.602,1.583,1.965,2.855,2.001c1.453,0.035,2.898-1.814,3.71-3.572	c0.951-2.058,1.002-4.55,1.428-6.709c0.143-0.722,0.656-1.425,0.857-2.142c0.552-1.95,1.298-4.589,2.996-5.282	c1.705,1.807,2.282,5.318,2.001,8.282c1.143,0.869,3.147,0.58,3.425,2.57c0.098,0.692-0.343,1.568-0.285,2.282	c0.098,1.2,0.988,2.257,1.144,3.284c0.284,1.9-0.313,3.472,0.569,4.852c1.114,1.749,3.299,1.688,4.712,3.573	c-0.029,1.175,0.44,1.646,0.714,2.566c0.13,0.433,0.006,1.143,0.145,1.428c0.458,0.959,1.694,1.053,2.142,1.857	c0.216,0.393,0.158,1.143,0.425,1.857c0.394,1.049,1.334,1.827,2.001,2.855C700.996,273.132,702.053,274.21,702.211,274.995" enable-background="new" opacity=".75"/><path fill="#636466" d="M682.938,34.006c4.312,0.028,9.389,1.824,8.992,5.855	c-5.051,1.106-9.273-3.476-14.562-2.142c-0.843,0.213-1.78,1.139-1.712,1.997c0.198,2.488,6.464,2.279,6.994,4.712	c-1.027,0.768-2.152,0.043-2.996,0.144c-1.286,0.152-3.457,1.511-4.282,2.283c-0.967,0.904-1.814,3.223-2.856,3.428	c-1.276,0.249-3.224-1.258-5.142-0.858c-0.703,0.148-1.377,1.024-1.997,1.143c-1.575,0.299-3.58-0.858-4.567,0.999	c0.522,1.305,0.205,3.122,1.283,3.854c0.699,0.476,1.571,0.108,2.426,0.429c1.003,0.375,1.562,1.596,2.427,2.285	c0.71,0.559,1.463,0.574,1.856,1.284c0.09,1.052-0.414,1.168-0.284,1.857c0.223,1.196,2.091,1.467,2.141,2.281	c0.065,1.032-1.182,0.812-1.427,1.857c-0.087,0.663,0.771,0.84,0.857,1.713c0.055,0.584-0.472,1.193-0.429,1.857	c0.062,0.951,0.811,1.586,0.714,2.426c-0.083,0.721-0.714,1.283-1.287,1.572c-2.732-1.756-5.195-4.175-8.136-6.425	c-3.016-2.307-7.785-5.141-8.282-9.993c-0.015-0.743,1.579-1.328,1.857-2.427c0.115-0.45-0.181-1.092-0.141-1.713	c0.098-1.676,1.482-3.287,1.428-4.282c-0.065-1.093-2.106-3.122-3.144-3.429c-0.829,0.437-0.008,1.302-0.141,2.001	c-0.166,0.862-1.212,1.915-2.142,1.997c-2.7,0.234-3.003-3.479-7.282-2.426c-1.11,0.274-2.668,1.943-2.282,3.998	c0.115,0.624,1.836,1.294,1.711,2.141c-0.118,0.823-3.889,1.064-4.711,1c-2.307-0.185-3.493-1.908-5.566-1.857	c-1.02,0.025-1.914,0.854-2.715,0.998c-4.499,0.822-11.169-2.213-12.704,1.713c-0.217,0.555-0.095,1.28-0.285,1.856	c-0.277,0.826-0.938,1.475-1.144,2.001c-0.176,0.44-0.144,1.309-0.429,1.997c-0.259,0.625-2.959,3.062-0.569,3.714	c0.566,0.151,0.832-0.245,1.568-0.144c1.23,0.165,3.27,2.134,4.712,2.141c0.861,0.004,2.055-0.97,2.711-0.999	c1.323-0.065,2.278,0.79,3.284,1.284c0.959,0.472,2.427,1.464,3.141,1.428c1.349-0.069,0.707-1.003,2-1.428	c2.471,0.732,3.628,3.349,5.996,5.426c0.858,0.75,2.127,1.395,3.284,2.426c0.646,0.577,2.629,2.124,2.712,2.856	c0.079,0.681-0.552,0.973-0.714,1.571c-0.234,0.869,0.31,1.507-0.285,2.142c-2.282-0.844-2.79-3.09-4.427-4.997	c-0.607-0.71-1.219-1.554-2.142-2.57c-0.415-0.458-1.929-2.066-2.855-1.713c-1.796,0.681,0.984,3.404,1.428,3.998	c0.948,1.259,2.202,2.953,2.285,4.283c0.055,0.851-0.555,2.397-0.569,3.854c-0.011,0.984,0.249,1.878,0.141,2.711	c-0.104,0.837-0.699,1.792-0.999,2.715c-0.339,1.046-0.414,2.297-0.714,2.996c-0.551,1.287-2.419,2.801-3.713,2.855	c-1.187,0.051-1.694-0.912-2.856-0.854c-1.756,0.083-2.08,1.701-3.14,2.996c0.094,1.406,0.533,1.889,0.284,2.855	c-0.385,1.514-2.491,1.777-2.426,3.285c0.06,1.395,1.929,1.665,2.855,2.285c1.272,0.847,3.504,2.733,4.712,4.283	c0.796,1.017,1.939,2.916,1.856,3.995c-0.108,1.413-4.174,3.377-5.856,2.855c-1.597-0.494-1.049-2.019-1.427-3.425	c-0.289-1.082-1.136-1.547-1.568-2.427c-0.227-0.461-0.119-1.193-0.43-1.712c-0.861-1.453-2.368-0.66-4.142-1.572	c-1.165-0.598-0.826-1.856-1.284-2.999c-0.616-1.536-3.201-2.26-5.281-1.853c-1.525,0.295-2.001,1.579-3.429,1.853	c-2.092-1.24,0.429-4.301-2.142-4.568c-1.968-0.206-3.27,2.827-4.424,3.713c-0.778,0.595-2.195,0.718-2.285,1.569	c-0.166,1.575,1.665,1.254,3.14,1.856c1.338,0.548,1.494,2.063,2.715,2.142c1.021,0.068,1.697-1.053,2.711-1.143	c1.753-0.155,3.177,0.634,4.283,1.287c-0.717,1.731-4.557,3-4.567,5.281c-0.008,1.324,1.528,1.551,2.711,2.427	c0.999,0.739,2.31,2.826,3.713,4.283c0.606,0.627,1.583,1.042,1.857,1.428c0.663,0.944,0.559,2.094,1.283,2.714	c0.119,0.783-0.357,0.974-0.285,1.713c0.35,1.027,1.929,0.832,2.286,1.856c-0.295,2.463,0.731,4.781-1.287,5.711	c-0.926,4.416-1.976,7.87-4.997,10.279c-2.711,2.159-6.298,2.797-9.564,3.854c-0.848,0.274-1.525,1.168-2.286,1.427	c-1.896,0.645-5.277,0.252-5.422,2.571c-0.075,1.142,1.449,1.831,1.568,2.995c0.184,1.789-1.417,3.588-2.57,3.714	c-0.829,0.09-2.614-0.487-2.711-2.001c-0.112-1.701,2.112-2.397,2.285-3.425c0.3-1.817-1.571-3.587-3.713-3.425	c-1.882,0.141-6.173,3.926-6.28,5.996c-0.083,1.546,3.067,4.766,4.14,5.71c4.008,3.533,8.266,5.653,7.566,14.277	c-1.003,2.181-3.562,2.649-5.57,3.854c-1.525,0.916-2.282,3.756-4.853,3.998c-1.031-0.353-0.429-1.965-0.714-2.711	c-0.39-1.024-2.438-1.525-3.713-2.571c-1.042-0.858-1.482-2.21-2.282-2.999c-0.999-0.985-2.491-1.19-3.714-1.857	c-0.768-0.418-1.37-1.889-2.142-1.853c-1.258,0.051-0.821,1.262-1.143,3.281c-0.313,1.986-1.763,3.511-1.283,5.855	c0.198,0.959,1.399,1.733,1.997,2.711c0.991,1.619,1.129,3.504,2.143,4.427c0.67,0.609,1.809,0.742,2.569,1.283	c1.511,1.082,4.179,3.425,4.712,4.712c0.62,1.504,0.022,3.274,0.429,4.856c0.473,1.828,2.866,3.137,1.428,4.997	c-1.362-0.252-2.56-1.146-3.713-1.857c-1.961-1.214-2.862-2.26-4.139-4.282c-0.375-0.592-0.931-1.168-1.143-1.713	c-0.498-1.279-0.393-2.729-0.858-4.283c-0.396-1.337-1.947-3.45-3.141-4.571c-1.002-0.944-2.779-1.496-2.854-2.856	c-0.106-1.914,0.643-4.167,0.572-6.424c-0.019-0.487-0.351-0.977-0.43-1.568c-0.147-1.096,0.112-2.437-0.143-3.429	c-0.235-0.912-0.899-1.737-1.285-2.566c-0.381-0.823-0.771-1.648-1.142-2.715c-0.577-1.652-1.226-4.835-2.57-4.997	c-1.432-0.173-2.845,2.682-4.711,2.715c-0.96,0.014-2.232-0.754-2.428-1.716c-0.177-0.877,0.454-1.76,0.43-2.712	c-0.055-1.914-1.41-2.653-2.427-3.998c-0.411-0.544-0.52-1.308-0.858-1.712c-0.648-0.776-1.889-1.208-2.711-1.998	c-0.786-0.757-1.64-1.845-2.001-2.57c-0.552-1.118-0.728-2.567-1.568-2.715c-0.808-0.141-1.737,1.013-2.57,1.287	c-0.868,0.285-3.007,0.653-3.854,0.714c-2.866,0.198-5.195-0.566-4.856,2.856c-0.443,1.535-2.065,1.553-3.14,2.281	c-1.367,0.93-2.362,2.795-3.854,4.283c-0.725,0.729-1.773,1.183-2.426,1.857c-0.545,0.562-0.718,1.464-1.287,2.001	c-1.525,1.438-3.808,1.561-4.852,3.569c-0.059,2.372,1.124,4.168,0.857,6.421c-0.122,1.027-0.891,1.94-1.002,3	c-0.094,0.908,0.375,1.885,0.144,2.855c-0.123,0.519-0.7,0.793-1.144,1.427c-0.396,0.57-0.555,1.328-0.854,1.713	c-0.479,0.616-1.268,1.046-1.716,1.572c-0.725,0.858-0.876,1.471-1.568,1.572c-3.129,0.45-3.9-5.502-5.281-7.997	c-0.639-1.145-1.936-2.181-2.57-3.569c-0.732-1.6-0.956-3.608-2.001-5.425c-0.891-1.551-2.113-3.104-2.71-4.712	c-0.51-1.36-0.949-3.061-1.429-4.568c-0.509-1.594-1.06-3.598-1.143-4.853c-0.119-1.853,0.353-2.996-1.143-3.713	c-1.377,0.324-1.99,1.712-3.569,1.712c-1.524,0-5.616-2.639-4.425-4.997c-0.993-1.413-3.507-2.188-5.425-3.854	c-1.1-0.955-2.087-3.23-3.998-3.425c-0.522-0.054-1.207,0.242-1.712,0.285c-1.208,0.105-3.35-0.108-4.712,0	c-1.713,0.137-3.829,0.523-5.996,0.285c-1.398-0.151-3.129-0.422-4.567-0.57c-1.828-0.187-4.258-0.62-5.281-1.571	c-0.632-0.584-0.888-2.455-2.001-2.711c-1.323-0.307-2.052,0.717-3.285,0.998c-2.613,0.598-4.798-0.537-6.563-1.712	c-1.256-0.833-2.398-1.266-3.285-1.857c-2.171-1.453-2.56-5.822-5.855-5.855c-1.149-0.011-2.971,0.707-3.14,2.001	c-0.115,0.909,1.085,2.596,1.571,3.285c1.601,2.256,4.543,3.104,5.426,6.135c0.592,0.231,1.796-0.519,2.427,0.145	c0.552,1.301-0.007,3.717,1.283,4.283c5.931,0.98,7.629-2.271,10.278-4.568c1.54,1.006,1.035,1.885,1.572,2.996	c0.548,1.139,1.406,2.033,2.426,2.429c0.718,0.275,1.638,0.019,2.715,0.426c0.671,0.256,3.486,2.92,3.569,3.858	c0.072,0.84-1.846,3.698-2.43,4.423c-0.566,0.707-1.442,1.075-1.713,1.713c-0.205,0.494-0.137,1.543-0.284,1.856	c-0.264,0.57-1.547,1.313-2.286,1.997c-0.778,0.729-1.691,1.295-2.426,1.857c-0.901,0.693-1.461,1.644-2.427,2.001	c-1.899,0.7-3.706,0.4-5.281,1.428c-1.031,0.67-1.035,2.185-2.286,2.996c-1.302,0.847-3.533,0.854-5.426,1.716	c-1.215,0.551-1.943,1.622-2.996,1.997c-0.425,0.151-0.962,0.022-1.428,0.145c-0.951,0.241-1.824,0.915-2.714,1.139	c-0.703,0.18-1.45,0.086-2.142,0.288c-2.199,0.635-4.215,2.87-6.425,1.568c-1.042-2.405-1.211-5.433-2.427-7.567	c-0.62-1.089-1.838-1.424-2.281-2.567c-0.062-0.919,1.045-0.667,1.139-1.428c-0.364-1.543-1.82-2.263-2.711-3.573	c-0.436-0.637-0.638-1.546-1.143-2.281c-1.702-2.477-5.059-3.764-5.711-6.854c-0.177-0.84,0.029-1.5-0.141-2.141	c-0.281-1.057-0.995-2.167-1.716-2.997c-0.545-0.634-1.658-1.066-2.282-2c-0.415-0.617-0.505-1.485-0.858-2.142	c-1.42-2.65-3.476-4.989-5.71-6.853c-1.165,0.169-2.416,0.248-2.996,1.002c0.58,1.867,1.471,3.432,2.426,4.997	c0.873,1.424,2.113,2.96,2.711,4.568c0.224,0.594,0.184,1.373,0.43,1.997c0.897,2.264,3.721,2.96,4.283,5.57	c0.378,1.749-0.083,2.96,0.429,4.708c0.49,1.68,2.971,2.672,3.998,4.283c0.836,1.316,0.844,3.177,1.428,4.428	c0.854,1.831,3.244,2.624,4.997,3.854c1.571,1.106,2.696,2.812,3.994,3.998c0.765,0.692,1.813,0.818,2.001,1.571	c0.241,0.967-0.407,1.291-0.573,2.139c1.096,1.142,2.163,3.251,3.998,3.428c0.754,0.072,1.705-0.689,2.855-0.858	c0.58-0.083,1.226,0.09,1.713,0c0.76-0.137,1.424-0.815,2.285-0.999c1.46-0.314,3.151-0.187,4.997-0.429	c1.745-0.227,2.941-1.701,4.283-1.283c1.467,1.611,0.414,3.439,0,4.997c-0.144,0.547-0.148,1.114-0.285,1.571	c-0.768,2.542-2.787,4.424-3.714,6.71c-0.284,0.699-0.233,1.557-0.569,2.282c-1.06,2.289-3.277,4.546-4.997,6.424	c-0.97,1.057-1.824,2.012-2.854,2.856c-1.024,0.84-2.275,1.301-3.429,2.141c-2.286,1.673-4.665,4.067-6.28,6.284	c-0.624,0.858-0.923,1.846-1.572,2.567c-0.93,1.042-2.368,1.554-3.14,2.57c-0.609,0.808-1.014,2.261-1.713,3.714	c-0.786,1.633-2.426,2.736-2.142,4.996c0.108,0.866,0.885,1.399,1.144,2.286c0.443,1.521,0.104,2.802-0.145,4.424	c0.808,1.954,1.388,4.135,2.855,5.426c0.177,2.887-0.238,5.689,0,8.137c0.151,1.554,0.757,2.704,0.144,4.139	c-0.54,1.266-2.612,3.486-3.853,4.283c-1.349,0.868-3.41,1.096-4.857,2.145c-1.006,0.729-1.839,2.005-2.855,2.855	c-1.684,1.406-3.99,2.719-4.139,4.139c-0.086,0.822,0.645,2.059,0.854,2.855c0.559,2.109,1.1,5.138,0.145,7.423	c-1.035,2.47-6.27,1.954-6.854,4.568c-0.177,0.793,0.35,1.424,0.285,2.285c-0.051,0.725-1.006,3.353-1.428,4.139	c-0.631,1.183-2.066,1.709-2.996,2.715c-1.168,1.262-1.76,3.097-3,4.424c-1.684,1.807-3.957,3.717-6.14,5.281	c-1.896,1.367-5.3,2.787-8.276,3c-1.735,0.122-3.596-0.407-5.426-0.141c-0.671,0.094-1.399,0.71-2.286,0.855	c-0.516,0.083-1.042-0.09-1.568,0c-0.898,0.151-1.738,0.865-2.571,0.857c-1.849-0.021-4.225-2.231-4.283-4.427	c-0.021-0.844,0.725-1.647,0.714-2.426c-0.014-0.913-1.132-2.056-2.001-3.714c-0.832-1.594-1.161-3.403-1.997-4.708	c-0.887-1.389-2.059-2.048-2.711-3.145c-1.316-2.191-1.413-4.795-1.857-7.423c-0.144-0.857-0.733-1.788-0.858-2.855	c-0.155-1.315,0.159-2.769-0.14-3.853c-0.231-0.837-1.158-1.691-1.717-2.715c-1.006-1.85-1.712-4.272-2.567-5.707	c-0.803-1.349-2.426-2.755-2.57-4.283c-0.098-1.038,0.13-2.974,0.285-3.998c0.155-1.002,0.898-1.795,1.143-2.855	c0.162-0.699-0.033-1.507,0.14-2.286c0.729-3.263,4.327-4.452,3.858-8.42c-0.202-1.684-1.392-2.514-1.572-4.428	c-0.083-0.898,0.447-1.68,0.429-2.57c-0.025-1.205-1.046-2.996-1.572-4.139c-1.446-3.151-2.332-6.031-4.423-8.421	c-1.139-1.306-2.632-2.225-3.57-3.429c-0.768-0.981-1.701-2.82-1.715-3.57c-0.015-0.818,0.627-1.322,0.857-2.141	c0.3-1.056,0.321-3.047,0.714-4.712c0.181-0.764,1.006-2.614,0.858-3.854c-0.144-1.193-1.921-3.482-3.428-3.854	c-1.994-0.494-4.045,0.638-6.565,0.429c-2.171-1.373-2.008-4.968-5.142-5.426c-4.113-0.602-8.32,1.057-11.136,2.283	c-1.626,0.71-3.281,1.791-4.712,1.856c-1.356,0.065-2.689-0.721-3.994-0.854c-1.702-0.177-3.883-0.015-5.571,0.285	c-1.64,0.292-3.122,1.463-4.567,1.568c-2.769,0.209-5.401-2.495-7.139-3.854c-1.063-0.83-2.145-1.507-3.14-2.282	c-1.067-0.837-2.451-1.341-3.284-2.142c-1.125-1.089-1.125-2.981-1.712-4.427c-0.696-1.702-2.812-2.953-4.428-4.568	c-1.207-1.207-3.98-3.014-4.283-4.567c-0.151-0.794,0.34-1.709,0.285-2.571c-0.075-1.251-1.016-1.961-0.998-2.856	c0.029-1.254,1.507-2.224,1.856-3.284c0.18-0.54,0.094-1.305,0.285-1.997c0.4-1.449,1.359-2.307,1.143-4.427	c-0.086-0.844-0.811-1.615-0.858-2.711c-0.029-0.75,0.494-1.168,0.429-1.857c-0.108-1.219-1.692-1.456-1.858-2.855	c-0.166-1.446,1.381-2.639,2.286-4.283c0.407-0.735,0.631-1.864,0.999-2.426c0.8-1.216,2.105-1.803,2.714-3	c0.447-0.883,0.592-2.192,0.999-2.855c0.526-0.851,1.572-1.309,2.57-2.427c0.812-0.912,1.143-2.015,1.713-2.426	c0.717-0.519,1.788-0.645,2.57-0.998c2.643-1.205,4.576-2.755,5.851-5.286c-0.389-2.296,0.199-3.266,1.144-4.853	c0.872-1.467,1.51-2.869,2.999-3.713c1.785-1.009,3.461-1.103,4.709-2.996c0.623-0.948,1.561-2.585,1.571-3.569	c0.014-1.413-1.449-3.223-2.711-3.428c-1.291-0.206-3.274,0.98-3.998-0.426c-0.231-0.451,0.086-1.503,0-2.001	c-0.166-0.934-0.966-1.593-0.999-2.282c-0.068-1.341,1.32-2.736,1.713-4.283c0.533-2.105,0.018-3.717-0.144-6.139	c1.997-3.148,6.431-1.587,10.85-1.288c0.664,0.047,1.424-0.158,2.142-0.14c2.621,0.061,4.683,0.851,5.566-1.428	c0.332-0.858,0.628-4.048,0.429-4.856c-0.234-0.955-2.109-3.432-3-3.995c-1.416-0.901-3.471-0.508-4.282-2.141	c0.659-2.819,3.818-0.472,5.71-1.143c0.967-0.343,0.859-2.015,1.717-2.285c0.583-0.184,1.33,0.587,2.141,0.573	c0.692-0.015,3.198-1.273,3.854-1.716c0.912-0.617,1.193-1.897,1.997-2.427c0.545-0.357,1.262-0.313,1.857-0.57	c1.215-0.522,2.751-1.585,3.569-2.57c1.179-1.413,1.709-3.165,3.14-3.425c1.915-0.349,6.244,0.379,6.569-1.716	c0.306-1.994-1.756-3.562-0.999-5.71c0.599-1.699,2.123-1.399,4.283-2.427c1.042,0.739,0.739,2.852,0.855,4.142	c1.326,0.012,4.026-0.392,4.282-1.571c0.321-1.471-1.932-2.967-2.426-3.854c-0.533-0.963-0.649-2.654-1.712-2.855	c-2.174-0.419-4.287,2.995-6.998,2.995c-1.781,0-3.67-1.373-4.139-2.711c-0.267-0.764-0.025-1.485-0.144-2.285	c-0.173-1.168-0.872-2.38-0.569-3.995c1.092-1.874,3.612-2.178,5.425-3.144c0.685-0.364,1.237-1.143,1.997-1.427	c1.28-0.472,3.173,0.003,4.428-0.714c0.793-0.451,0.569-1.23,1.143-2.142c0.357-0.573,1.229-0.908,1.712-1.568	c0.336-0.458,0.375-1.15,0.714-1.572c1.24-1.543,3.504-2.113,4.423-3.709c0.408-0.707-0.703-0.971-0.425-2.001	c0.461-0.995,2.243-0.263,3.281-0.43c1.42-0.219,2.733-1.946,4.283-2.282c1.619-0.349,3.353-0.136,4.856-0.714	c0.897-0.345,1.723-1.16,2.57-1.286c0.3-0.044,1.143,0.162,1.569,0.144c0.544-0.022,1.132-0.357,1.857-0.429	c1.048-0.105,2.35,0.255,3.713,0.285c2.256,0.05,4.402-0.678,6.28,0.144c0.984,0.429,0.873,1.543,2.142,1.997	c0.639,0.231,1.482-0.09,2.427,0c1.399,0.133,2.858,1.1,4.712,1.287c0.659,0.065,1.341-0.083,1.997,0	c2.041,0.249,4.283,1.323,6.284,1.998c1.673,0.565,5.217,1.269,5.282,2.855c0.078,1.878-3.083,2.426-4.428,2.426	c-2.246,0-5.221-1.312-7.564-0.57c0.036,3.23,3.522,5.675,6.71,5.282c0.282-1.518-1.803-0.674-1.572-2.141	c1.424-1.075,3.13,0.72,5.141,0.428c0.786-0.212,0.653-1.348,0.854-2.141c1.698-1.031,3.825-2.545,6.425-1.428	c0.13-0.252,0.321-0.443,0.573-0.569c0.17-1.569-1.712-2.387-0.714-3.858c0.498-1.013,3.158-0.663,3.569,0.144	c0.205,0.967-0.66,0.862-0.573,1.713c0.505,1.139,1.669,1.319,2.285,1.287c1.403-0.076,1.681-1.33,3-2.001	c0.533-0.27,1.315-0.299,1.997-0.57c0.808-0.32,1.493-0.969,2.142-1.143c0.476-0.126,1.193,0,1.856-0.144	c0.844-0.18,1.734-0.858,2.427-0.854c0.861,0,1.478,0.995,2.57,1.143c0.595,0.079,1.273-0.339,2.142-0.429	c0.699-0.076,1.424,0.083,1.997,0c1.363-0.199,2.3-0.916,3.429-0.858c0.797,0.043,2.163,1.118,2.711,0.573	c0.923-0.916-1.232-1.597-0.569-2.43c2.191,0.166,4.518,0.116,6.709,0.429c3.263,0.465,6.338,2.08,9.28,2.142	c-0.278-1.983-2.553-1.414-3.569-2.283c-0.31-0.266-1.586-2.357-1.572-2.999c0.011-0.321,1.62-3.068,2.001-3.425	c1.259-1.182,5.387-1.175,6.565,0.425c0.808,1.096,0.541,2.748,1.712,2.715c1.006-0.029,1.543-2.509,2.716-2.571	c0.966-0.05,1.452,1.59,2.426,1.572c1.179-0.025,2.004-2.227,3.569-2.285c0.843-0.033,1.124,0.432,2.426,0.569	c0.895-0.573-0.299-1.33,0.145-2.141c1.597-1.161,5.238-0.277,7.278-0.999c0.566-0.677-0.725-1.157-0.141-1.857	c1.756-1.229,4.716-1.34,7.708-1.853c1.832-0.313,3.562-1.586,4.997-1.715c1.5-0.134,2.931,0.879,4.283,0.857	c0.818-0.014,1.777-0.263,2.57-0.569c0.804-0.314,1.352-1.093,2.142-1.287c1.255-0.307,2.837,0.147,4.283,0	c1.532-0.155,2.888-0.75,3.998-0.57c1.038,0.166,1.871,1.273,2.856,1.428c3.006,0.469,6.109-0.451,8.85,0.285	c0.49,0.133,0.984,0.641,1.571,0.857c1.835,0.671,3.087,0.462,3.426,2.712c1.446,0.512,2.292,1.835,3.998,2.286	c1.139,0.299,2.282-0.144,3.568-0.144c1.688,0,3.848,0.064,5.282,0.284c0.818,0.126,1.489,0.728,2.285,0.858	c0.577,0.094,1.342-0.061,1.998,0c0.894,0.083,1.697,0.451,2.426,0.429c1.496-0.047,2.628-1.381,3.854-1.571	c0.655-0.102,1.528,0.233,2.141,0.284c2.401,0.202,5.174-0.314,7.139,0.143c1.049,0.245,2.841,1.4,3.998,2.282	c0.839,0.642,1.349,1.663,2.142,2.142c0.75,0.454,2.65,1.269,3.429,1.143c0.908-0.144,0.952-1.161,1.853-1.569	c2.83-0.631,7.859,0.902,10.139-0.144c0.883-0.407,0.71-1.341,1.428-1.856c4.282-0.21,8.548,0.176,12.563,0.284	c1.411,0.04,2.866-0.36,4.139-0.14c1.417,0.245,2.448,1.662,3.854,2.141c0.938,0.317,2.588,0.152,3.998,0.429	c0.944,0.184,1.72,0.754,2.426,0.855c1.525,0.216,2.981-0.17,4.428-0.285c3.277-0.263,7.484-0.436,10.707,0.858	c1.717,0.688,2.441,2.08,4.283,2.282c2.639,0.292,6.72-0.216,9.424,0c0.646,0.054,1.248,0.321,1.713,0.285	c0.904-0.065,1.453-0.833,2.57-0.854c1.413-0.032,3.659,2.203,5.711,1.857c0.883-0.598-0.707-1.431,0.141-2.001	c0.804-0.667,1.903-0.007,3.14,0c0.674,0.008,1.507-0.342,2.142-0.284c1.572,0.136,3.06,1.546,4.997,1.997	c1.539,0.36,3.655,0.494,5.569,0.288c1.374-0.151,2.549-0.613,3.854-0.429c0.631,0.086,1.193,0.544,1.856,0.714	c0.606,0.155,1.204,0.007,1.713,0.14c0.476,0.13,0.948,0.577,1.428,0.714c2.656,0.761,6.187,1.136,8.994,2.001	c1.651,0.509,3.343,1.533,4.713,1.569C681.475,34.313,682.072,34,682.938,34.006 M557.444,67.127	c0.562-1.817-0.313-3.652-1.428-4.853c-1.648,0.285-0.458,1.997-0.569,3c-0.162,1.417-1.666,2.4-1.572,3.854	c-0.549,0.641-1.485,0.894-1.567,1.997c0.904,0.627,1.305-0.494,1.997-1.143C555.396,68.959,557.066,68.353,557.444,67.127 M520.041,17.588c-1.572,0-2.163,0.62-3.141,1.143c-0.537,0.284-1.63,0.443-1.287,1.283	C516.987,19.848,519.713,19.229,520.041,17.588 M490.06,84.972c-0.537-1.078-2.08,0.318-1.428,1.287	C489.599,86.321,489.944,85.762,490.06,84.972 M459.794,35.149c3.353,0.782,4.932-3.007,2.711-5.142	c-0.519-0.497-2.271-0.692-2.995-1.853c-0.873-1.395-0.75-3.259-2.855-2.855c-0.025,0.166,0.021,0.404-0.145,0.426	c-0.198,3.122,4.348,3.907,4.283,6.424C460.761,33.468,459.365,33.609,459.794,35.149 M456.795,90.827	c2.314-0.447,0.028-4.146-1.713-3.713C452.808,87.683,455.219,91.13,456.795,90.827 M446.231,109.243	c0.714-4.95-3.147-5.321-3.854-8.851c0.328,0.043,0.159-0.411,0.426-0.429c0.941-0.451,2.358,0.721,2.856-0.426	c0.011-1.691-2.135-2.952-4.283-2.141c-0.62-0.426-0.706-1.388-0.855-2.286c-1.618-0.962-5.624-3.068-5.569-4.997	c0.046-1.586,2.091-2.477,4.427-2.426c0.984-0.746,0.35-3.039-0.569-3.569c-3.691-0.808-5.66-0.263-7.997,1.428	c-1.121,0.811-2.372,1.37-2.999,1.857c-0.577,0.446-1.349,1.668-1.283,2.281c0.09,0.884,1.355,1.403,1.856,2.571	c0.256,0.602,0.202,1.356,0.429,1.857c0.624,1.377,2.221,2.267,3.425,3.424c0.852,0.819,3.234,2.593,3.284,3.57	c0.04,0.815-0.731,0.995-0.998,1.857c-0.267,0.843-0.577,2.836-0.429,3.568c0.316,1.569,1.939,1.623,3.425,2.286	c1.475,0.656,2.895,1.817,4.427,1.853C443.581,110.714,445.319,110.191,446.231,109.243 M412.682,98.964	c3.868-0.699,2.102-3.969,0.141-5.137c-1.485-0.887-3.263-1.659-4.996-2.715c-1.007-0.613-4.828-1.77-4.854-2.996	c-0.029-1.341,2.845-1.781,1.712-4.142c-1.953-0.476-6.601,0.274-6.28,2.426c0.185,1.244,1.659,0.555,1.998,1.857	c-1.399,0.497-3.1,1.802-4.568,1.572c-1.748-0.275-2.199-2.423-3.14-3.714c-1.359,0.043-2.254-1.316-3.854-1.143	c-1.68,0.184-2.57,2.621-3.428,3.858c-0.455,0.649-1.18,0.984-1.428,1.568c-0.148,0.354,0.014,0.916-0.141,1.428	c-0.49,1.586-1.864,2.167-1.717,3.569c0.134,1.237,1.478,1.792,1.572,2.855c-0.094,1.096-1.853,0.527-1.713,1.857	c2.557,2.109,2.697-0.995,3.999-1.428c1.045-0.349,3.097,0.289,4.423,0c1.071-0.234,1.915-1.254,3.141-1.712	c0.75-0.281,1.676-0.53,2.715-0.573c4.542-0.188,7.474,2.768,11.421,2.855C408.989,99.278,411.326,99.21,412.682,98.964 M403.542,115.812c0.079-1.532-0.584-2.686-0.714-4.852c-2.635-1.59-4.604,1.474-7.278,1.139c-1.644-0.206-2.823-2.12-4.568-1.853	c-0.962,0.144-1.438,1.388-2.43,1.568c-2.041,0.375-2.971-1.633-5.138-0.854c-3.057-2.329-4.422-6.122-5.141-10.423	c-1.666-2.185-4.207-0.407-5.426,0.999c-0.75-0.007-1.688-0.415-1.853,0.429c-0.563,2.639,3.731,2.92,3.71,4.711	c-0.015,1.165-1.677,1.057-2.427,1.854c-0.797,0.847-0.266,1.601-1.283,2.141c-2.816,0.339-3.75-1.2-3.713-3.709	c-1.216-1.847-2.751-3.191-3.854-4.712c-0.408-0.563-1.017-1.439-1.143-2.286c-0.102-0.667,0.317-1.515,0.144-2.282	c-0.31-1.363-2.848-2.39-4.427-3.14c-1.689-0.804-3.8-1.565-4.997-2.571c-0.847-0.714-1.247-1.954-1.997-2.426	c-0.639-0.4-1.432-0.317-2.001-0.714c-0.783-0.548-0.653-1.46-1.713-1.716c-0.537-0.198-1.366,0.534-1.712,1.002	c-0.696,3.115,1.838,3.328,2.995,4.708c0.797,0.949,1.194,2.376,2.001,3c0.862,0.667,2.034,0.544,3.141,0.999	c0.764,0.313,1.261,1.265,1.997,1.712c1.363,0.829,3.551,0.973,3.714,2.571c-0.848,0.576-2.77-0.84-3.426,0.573	c-0.169,0.927,0.736,1.402,0.714,2.282c-0.036,1.406-1.597,2.945-2.999,2.714c-0.141-0.835,0.746-1.521,0.713-2.429	c-0.061-1.817-3.713-4.59-5.566-5.423c-0.869-0.392-1.925-0.414-2.715-0.857c-1.402-0.79-3.857-2.729-4.712-3.854	c-1.02-1.353-1.892-3.855-4.138-3.714c-0.916,0.058-1.673,0.898-2.427,1.287c-0.685,0.35-1.442,0.675-2.141,1.139	c-0.833,0.552-1.511,1.111-2.286,1.143c-1.792,0.076-3.313-1.33-4.852-0.998c-0.519,0.112-0.952,0.577-1.572,1.143	c-0.022,0.833,0.248,1.366,0.144,2.282c-0.465,0.803-1.846,0.753-2.856,1.287c-1.478,0.779-2.794,2.379-3.998,3.569	c-0.775,0.764-1.474,1.395-1.571,1.997c-0.076,0.472,0.399,1.366,0.288,2.001c-0.126,0.69-1.421,2.116-2.286,2.712	c-0.504,0.346-1.175,0.393-1.712,0.714c-1.125,0.667-1.63,1.536-2.571,1.712c-2.494,0.466-7.03-0.501-6.994,2.142	c0.022,1.767,2.405,1.773,3.854,1.712c2.019-0.079,3.735,0.43,4.853,0.144c0.771-0.194,1.615-1.059,2.426-1.427	c0.512-0.231,1.042-0.234,1.428-0.429c0.854-0.429,1.337-1.125,2.001-1.428c1.305-0.594,3.735-1.06,5.137-1.143	c1.925-0.111,3.937,0.199,6.425,0c0.886-0.068,1.762-0.637,2.714-0.713c1.554-0.123,3.598,0.613,4.853,0.573	c0.869-0.029,1.838-0.872,2.855-0.858c1.15,0.018,2.361,0.836,2.57,1.571c0.119,0.419-0.241,1.086-0.144,1.713	c0.166,1.038,1.056,1.468,1.003,2.141c-0.076,0.895-2.304,2.088-2.001,3.141c0.198,0.677,1.795,1.384,2.57,1.857	c0.812,0.493,2.181,1.178,3.14,1.283c0.808,0.09,1.522-0.224,2.286-0.141c1.229,0.134,3.22,0.88,3.998,1.428	c1.341,0.945,1.154,2.459,2.711,2.996c0.664,0.23,1.861,0.101,2.711,0.288c2.081,0.451,3.624,2.174,5.141,1.998	c2.391-0.278,1.302-2.531,1.572-4.139c0.61-3.645,7.73-3.479,9.135-1.003c1.042,0.278,1.953,0.044,3.141,0.43	c0.685,0.223,1.197,0.973,1.856,1.142c0.499,0.127,1.223-0.072,1.857,0c2.736,0.31,5.217,2.347,7.567,1.998	c1.493-0.22,2.575-1.623,3.995-1.713c2.732-0.169,4.481,2.034,7.427,0.999c2.166-0.761,1.684-3.007,2.426-5.282	C402.489,118.084,403.484,117.005,403.542,115.812 M403.401,241.875c0.66-1.049,1.489-3.998,0-4.712h-0.283	C402.478,238.348,401.801,241.211,403.401,241.875 M401.4,212.034c0.483-0.991,1.615-2.033,1.428-3.281	c-0.411-2.75-5.556-1.395-6.136,0.57c-0.393,1.323,0.234,2.372-0.288,3.713c0.561,1.056,1.972,1.266,3.714,1.139	C401.08,213.751,400.961,212.943,401.4,212.034 M392.694,226.739c0.566-1.048-0.901-1.73-1.142-2.855	c-0.281-1.319,0.32-2.862-0.858-3.569h-0.426C389.233,222.655,390.697,226.516,392.694,226.739 M378.847,50.424	c-3.014-2.571-8.144,0.937-11.565,0.713c-1.461-0.093-3.386-1.178-3.854-2.57c-0.148-0.44-0.026-1.031-0.145-1.853	c-0.129-0.912-0.602-1.868-0.569-2.43c0.144-2.578,6.565-3.064,6.565-6.28c-1.226-1.175-4.821-0.977-5.996,0.285	c-0.421,0.454-0.4,1.373-0.998,2.285c-1.28,1.951-5.416,2.182-6.709,4.568c-0.289,0.53-0.79,1.979-0.574,2.855	c0.339,1.352,3.33,1.72,3.428,3.14c0.167,2.394-3.659,2.095-4.142,4.143c-0.216,0.927,0.447,2.163,0.288,2.996	c-0.291,1.5-1.741,1.064-3.568,1.856c-0.934,0.404-1.839,1.89-2.856,1.998c-0.941,0.101-1.514-0.548-2.141-0.426	c-0.937,0.177-0.624,1.327-2.001,1.569c-1.096,0.191-3.014-0.981-3.14,0.429c-0.083,0.905,1.723,1.395,2.855,1.283	c0.898-0.086,1.554-0.703,2.426-0.714c1.691-0.014,2.791,1.255,3.854,1.287c2.452,0.069,4.857-2.264,7.427-2.001	c1.161,0.119,1.85,0.942,2.711,0.859c1.377-0.13,2.549-1.72,3.569-2.286c-0.432-2.405,0.04-5.578,2.286-5.711	c1.543-0.09,3.857,2.639,4.139,0c0.122-1.146-1.219-2.159-2.142-2.141c-0.822,0.018-1.899,1.625-2.57,0.288	c0.004-1.309,1.471-0.962,2.285-1.287c0.606-0.241,1.035-0.901,1.713-1.143C372.818,50.943,377.527,53.308,378.847,50.424" enable-background="new" opacity=".75"/><path fill="#636466" d="M669.516,316.397c-0.425,1.781-1.788,3.761-3.569,4.997	c-1.29,0.898-5.382,2.704-5.851,0.145c-0.134-0.714,0.797-4.027,1.139-4.712c1.006-2.001,2.088-0.696,3.714-0.43	C666.613,316.669,668.182,315.389,669.516,316.397" enable-background="new" opacity=".75"/><path fill="#636466" d="M658.379,108.817c0.577,1.712,0.977,3.4,1.428,4.997	c-1.572,1.958-4.683,1.233-6.994,2.282c-1.081,0.494-1.384,2.297-2.426,2.571c-0.844,0.219-1.493-0.729-2.286-0.714	c-2.051,0.039-3.054,3.432-5.566,2.57c-1.438,0.858,0.058,4.146-1.712,4.424c-1.262,0.198-1.95-1.428-2.715-2.426	c-0.927-1.212-2.246-1.875-2.282-2.856c-0.04-1.016,2.052-2.718,2.711-3.425c0.812-0.869,2.401-2.487,3.425-2.715	c1.904-0.417,3.836,0.185,5.285-0.425c1.251-0.533,1.319-2.502,1.998-2.999c0.572-0.422,1.226-0.307,1.712-0.57	c1.327-0.717,2.758-3.187,2.001-5.711c-0.479-1.593-3.118-3.338-1.428-5.285c2.531,0.27,5.862,2.761,6.28,5.285	c0.162,0.984-0.378,1.969-0.284,2.996C657.575,107.407,658.12,108.043,658.379,108.817" enable-background="new" opacity=".75"/><path fill="#636466" d="M658.952,93.254c-0.32,0.728-0.966,0.577-1.571,0.999	c-0.584,0.411-1.276,1.719-1.997,1.856c-1.144,0.217-2.434-1.125-3.569-0.854c-1.342,0.317-0.556,1.345-0.999,2.567	c-1.173-0.249-3.097-1.554-3.143-2.856c-0.03-0.818,1.035-1.323,1.287-2.282c0.426-1.633-0.674-2.455-1.287-3.998	c-0.04-0.23,0.136-0.245,0.145-0.429c1.394-0.292,4.135,2.336,7.281,2.855C657.132,91.448,658.834,91.268,658.952,93.254" enable-background="new" opacity=".75"/><path fill="#636466" d="M653.671,238.161c0.147,1.186-1.922,1.053-2.142,0.285	C651.572,237.527,653.415,237.238,653.671,238.161" enable-background="new" opacity=".75"/><path fill="#636466" d="M643.678,81.263c1.413,0.746,4.838,2.44,2.426,3.998	C644.644,84.72,643.122,82.874,643.678,81.263" enable-background="new" opacity=".75"/><path fill="#636466" d="M637.108,231.881c1.637-0.887,3.422-2.844,6.28-1.856	c-0.623,1.777-2.775,1.737-4.139,2.57c-1.373,0.836-2.542,2.264-4.283,2.426c-0.13-0.252-0.32-0.443-0.569-0.573	C634.391,232.855,635.98,232.49,637.108,231.881" enable-background="new" opacity=".75"/><path fill="#636466" d="M633.255,205.041c1.68,0.003,3.259-0.516,4.424,0.144	c-0.217,3.569-5.754,0.855-9.421,1.428c-0.782,0.118-1.013,0.724-1.857,0.425c0.048-1.208,1.352-2.43,2.712-2.567	C630.161,204.362,631.727,205.037,633.255,205.041" enable-background="new" opacity=".75"/><path fill="#636466" d="M634.683,209.464c0.162,1.972-2.535,2.196-3.284,3.713	c1.186,1.814,1.644,4.352,2.999,5.996c-0.058,1.088,0.22,2.509-0.429,2.999c-2.874,0.548-4.424-4.614-5.57-6.424	c-2.199,0.414-0.191,7.441-3.14,6.569c-1.442-0.43,0.021-2.441-0.285-3.999c-0.271-1.366-1.611-1.651-1.713-2.714	c-0.083-0.88,0.97-1.814,1.284-2.711c0.454-1.295,0.165-3.786,1.712-3.854c0.761-0.036,1.788,1.604,2.286,1.712	C630.248,211.119,632.274,209.013,634.683,209.464" enable-background="new" opacity=".75"/><path fill="#636466" d="M629.4,230.738c-0.526,1.078-3.461,0.562-3.713-0.429	C626.192,229.185,629.152,229.523,629.4,230.738" enable-background="new" opacity=".75"/><path fill="#636466" d="M626.685,234.163c-0.165,0.213-0.356,0.404-0.569,0.573	c-1.081-0.349-2.243-0.613-2.57-1.716C624.35,231.845,626.646,232.822,626.685,234.163" enable-background="new" opacity=".75"/><path fill="#636466" d="M621.404,202.329c0.411,0.836,1.619,1.738,1.572,2.282	c-0.094,1.067-2.243,1.02-2.715,2.142c-0.436,1.038,0.028,1.106-0.141,2.711c-0.603,1.164-2.218,1.446-2.715,2.855	c-0.603,1.702,0.09,3.894-1.283,5.141c-0.947-0.047-1.986,0.822-3.141,0.714c-1.247-0.116-2.444-1.831-4.427-1.857	c-0.761-0.007-1.655,0.483-2.427,0.429c-0.612-0.043-1.103-0.605-2.001-0.854c-1.077-0.303-2.091-0.137-2.566-0.429	c-0.977-0.602-0.829-2.311-1.143-3.284c-0.317-0.985-1.504-1.511-2.142-2.856c-0.927-1.947-1.327-6.306,1.143-6.709	c0.995-0.166,2.019,0.598,2.711,0.429c1.377-0.339,1.136-2.12,2.286-2.859c0.638-0.411,1.802-0.238,2.711-0.57	c0.938-0.342,1.641-1.233,2.285-1.997c0.599-0.714,1.067-1.911,1.854-2.426c0.891-0.584,1.713-0.599,2.43-1.143	c1.871-1.427,1.929-3.418,3.425-5.141c1.266-1.456,3.271,1.402,3.425,2.57c0.711,0.909,2.105,1.132,2.714,2.142	c-0.839,2.509-3.211,2.729-2.714,6.28C620.629,200.476,621.025,201.554,621.404,202.329" enable-background="new" opacity=".75"/><path fill="#636466" d="M622.832,230.594c-0.725,1.024-3.237-0.083-4.139,0.999	c-1.485-0.036-2.985-0.058-3.284-1.284c0.425-1.045,1.78-0.328,2.855-0.429C619.987,229.725,622.37,228.514,622.832,230.594" enable-background="new" opacity=".75"/><path fill="#636466" d="M613.123,230.024c-1.255,1.327-3.107,0.371-4.712,0.141	c-1.449-0.206-2.996-0.105-4.567-0.286c-1.998-0.23-3.808-1.333-5.711-1.567c-1.154-0.145-2.336,0.165-3.425,0	c-1.287-0.199-6.071-2.009-6.14-3.285c-0.068-1.312,2.152-1.687,4.139-1.428c2.566,0.336,4.275,2.6,7.566,2.142	c0.783-0.108,1.36-0.685,2.143-0.714c1.665-0.061,3.311,1.233,5.281,0.999c0.429,0.457,0.137,0.843,0.145,1.572	C609.515,228.492,612.251,228.326,613.123,230.024" enable-background="new" opacity=".75"/><path fill="#636466" d="M594.888,212.716c3.635,0,3.635,5.635,0,5.635	C591.258,218.351,591.258,212.716,594.888,212.716" enable-background="new" opacity=".75"/><path fill="#636466" d="M589.566,212.034c0.447,0.058,2.026,2.257,2.001,2.855	c-0.05,1.01-1.565,0.956-2.001,2.286c-0.67,2.051,0.304,4.377-0.854,5.426c-0.653,0.393-1.821,0.274-2.856,0.285	c-2.593-1.824-4.644-3.991-6.854-6.425c-0.804-0.883-1.784-1.651-2.285-2.57c-0.742-1.363-1.005-2.863-1.857-4.139	c-0.746-1.125-2.123-1.922-2.855-3.14c-0.599-1.002-0.652-2.318-1.283-3.285c-0.588-0.897-1.587-1.283-2.286-2	c-0.458-0.469-0.714-1.201-1.14-1.713c-1.795-2.148-5.245-3.269-5.425-6.424c0.735-0.84,1.488,0.313,2.855,0.573	c0.883,0.166,1.932-0.072,2.569,0.141c1.299,0.436,2.192,2.462,3.57,3.569c0.768,0.62,1.777,1.049,2.566,1.712	c0.848,0.71,1.468,1.727,2.142,2.142c0.929,0.569,2.217,0.944,3.428,1.716c1.648,1.049,4.598,2.141,4.997,4.283	c0.098,0.533-0.252,1.435-0.144,1.853c0.194,0.75,1.146,1.074,1.712,1.712c0.703,0.797,0.848,1.987,1.857,2.145	C588.432,213.318,588.478,211.893,589.566,212.034" enable-background="new" opacity=".75"/><path fill="#636466" d="M522.182,182.054c1.229,0.404,5.333,5.39,4.14,8.14	c-0.339,0.783-1.753,1.789-3.141,1.568c-2.826-0.446-2.285-6.737-1.428-9.279C521.832,182.277,521.977,182.133,522.182,182.054" enable-background="new" opacity=".75"/><path fill="#636466" d="M443.805,246.014c0.094,0.778,0.498,1.611,0.426,1.997	c-0.205,1.139-1.46,1.373-1.853,2.145c-0.097,3.134-1.326,5.852-2.43,8.422c-0.948,2.218-1.5,4.654-2.282,6.569	c-0.284,0.695-0.883,1.24-1.143,1.852c-1.027,2.427-1.406,6.244-3.284,7.284c-0.674,0.37-3.281,1.008-3.998,0.997	c-1.749-0.028-3.263-1.338-3.71-2.855c-0.241-0.81-0.004-1.658-0.145-2.57c-0.173-1.143-0.854-2.123-0.714-3.425	c0.317-2.906,3.147-4.315,3.285-6.709c0.104-1.803-0.912-3.595-0.715-5.426c0.127-1.146,0.945-3.036,1.857-3.714	c1.315-0.977,3.097-0.876,4.424-1.568c1.1-0.573,2.617-1.521,3.428-2.57c0.689-0.891,0.725-1.907,1.284-2.571	c0.386-0.458,1.251-0.58,1.712-1.143c0.415-0.501,0.321-1.442,1.004-1.997C442.933,239.889,443.502,243.519,443.805,246.014" enable-background="new" opacity=".75"/><path fill="#636466" d="M412.822,29.723c-0.415-1.543,2.513-1.294,2.001,0.144	C414.365,30.296,413.114,30.26,412.822,29.723" enable-background="new" opacity=".75"/><path fill="#636466" d="M395.265,115.098c0.064-1.179,2.754-1.611,3.28-0.569	C398.368,115.675,395.816,116.465,395.265,115.098" enable-background="new" opacity=".75"/><path fill="#636466" d="M346.295,107.39c1.489-1.204,4.802-0.389,6.854-0.429	c-0.386,1.093-0.444,2.51-1.288,3.14C349.522,109.68,347.34,109.103,346.295,107.39" enable-background="new" opacity=".75"/><path fill="#636466" d="M335.873,99.823c1.961-2.048,4.02-0.966,3.284,2.996	c-0.468,1.182-2.509,2.761-3.428,1.002C336.042,102.437,335.909,101.416,335.873,99.823" enable-background="new" opacity=".75"/><path fill="#636466" d="M338.728,95.255c0.162,1.208-0.343,1.749-0.999,2.141	C335.847,97.065,337.279,93.687,338.728,95.255" enable-background="new" opacity=".75"/><path fill="#636466" d="M321.311,69.413c0.166,1.363-1.694,1.9-1.428,3.425	c-1.961,1.539-5.231,0.742-8.425,1.143c-1.445,0.184-3.039,1.622-4.567,0.429c-0.354-0.959,1.269-1.089,1.427-1.997	c-0.112-0.844-1.179-0.725-1.427-1.428c0.414-1.111,1.708-1.338,1.571-3c0.797-0.868,2.329-0.54,2.571-1.712	c0.166-0.815-0.472-1.828-1.287-2.286c-0.469-0.263-1.186-0.14-1.713-0.429c-1.391-0.764-1.896-2.357-2.711-2.711	c0.105-1.564-0.429-2.697,0-3.713c0.26-0.617,2.135-2.358,3.14-2.711c1.247-0.44,2.553-0.047,3.285-0.999	c0.328-0.047,0.547,0.022,0.713,0.141c-0.007,0.901-0.764,1.049-0.857,1.856c0.176,1.298,2.462,0.487,2.71,1.713	c-0.216,1.334-1.417,1.597-1.427,2.571c-0.004,0.847,1.73,2.455,2.571,3.568c0.626,0.826,1.723,1.439,2.285,2.286	c0.49,0.739,0.598,1.619,0.999,1.998C319.491,68.267,321.185,68.386,321.311,69.413" enable-background="new" opacity=".75"/><path fill="#636466" d="M305.748,63.987c0.141,1.071-1.013,1.226-1.428,2.426	c-0.371,1.093,0.073,2.39-0.425,3.144c-0.437,0.653-1.623,0.613-2.43,0.854c-1.796,0.538-5.263,2.647-6.709,0.285	c0.209-1.265,1.434-1.518,1.856-2.566c0.026-0.826-0.854-1.263-0.714-2.142c0.174-1.078,0.985-0.707,2.142-1.143	c0.84-0.321,1.201-1.337,2.286-2.001C302.232,61.68,305.563,62.57,305.748,63.987" enable-background="new" opacity=".75"/><path fill="#636466" d="M249.784,227.31c0.289,5.188-3.695,6.85-5.995,10.282	c-0.48,0.717-0.746,1.853-1.428,2.855c-1.37,2.016-2.895,2.434-2.711,6.136c0.05,1.021,0.569,2.012,0.569,3.144	c0,1.377-0.118,3.188-0.428,4.424c-0.235,0.948-1.017,1.712-1.143,2.57c-0.126,0.873,0.256,1.547,0.144,2.286	c-0.122,0.821-0.945,1.986-1.572,3.14c-1.319,2.438-1.608,5.303-4.283,6.28c-1.572,0.577-3.702,0.256-5.422,0.858	c-0.696,0.241-1.575,0.887-2.43,1.283c-2.484,1.157-6.024,2.719-6.709,5.281c-0.61,2.282,0.851,4.107,0.429,6.713	c-0.443,0.775-1.042,1.547-1.712,2.427c-0.617,0.808-0.924,1.763-1.573,2.57c-0.858,1.071-2.192,1.547-2.711,2.996	c-0.176,0.49-0.065,1.078-0.284,1.856c-0.083,0.289-0.61,0.732-0.859,1.283c-0.23,0.509-0.219,1.157-0.428,1.572	c-0.653,1.319-2.593,4.315-3.998,4.712c-2.964,0.833-6.09-1.258-8.138-0.858c0.296,1.432,1.334,1.284,2.001,2.285	c0.389,0.592,0.602,1.375,1.139,1.998c0.642,0.743,1.208,1.017,1.288,1.856c0.162,1.76-1.208,3.53-2.142,4.143	c-0.855,0.56-2.628,0.887-4.142,1.14c-1.057,0.177-3.782,0.188-4.283,0.858c-0.736,0.994,0.389,3.442-0.141,4.427	c-1.067,2.087-3.937-0.058-5.426,0.569c-0.126,1.078,0.271,2.207,1.143,2.711c0.898,0.526,2.261-0.159,2.855,0.858	c-0.292,1.421-1.82,1.605-2.141,3c0.04,1.357,0.458,1.716,0.285,2.566c-0.372,1.835-3.223,1.76-3.14,3.714	c0.122,2.924,5.61,1.727,5.71,4.567c0.058,1.724-1.572,1.741-2.141,3.425c-0.307,0.901,0.176,1.11,0,1.856	c-0.238,1.014-1.428,1.306-1.428,2.427c-0.004,1.366,1.997,2.866,2.996,3.998c0.977,1.107,2.232,2.686,3.569,3.428	c2.005,1.107,4.99,0.858,5.855,2.857c-0.274,1.2-1.431,1.518-2.571,1.852h-0.284c-0.386-0.233-1.756-0.233-2.142,0h-1.997	c-1.911-0.879-4.229-1.448-6.569-2.281c-0.843-0.299-1.795-1.017-2.711-1.428c-0.688-0.31-1.464-0.433-2.001-0.714	c-1.229-0.645-2.613-2.739-3.854-3.568c-0.753-0.505-1.936-0.771-2.426-1.287c-0.469-0.487-0.725-1.543-1.143-2.139	c-0.461-0.659-1.309-1.135-1.856-1.857c-1.186-1.575-2.701-3.695-2.711-4.855c-0.012-1.143,1.088-1.918,0.713-2.996	c-0.35-1.014-2.542-0.793-2.855-2.001c-0.191-0.728,0.631-1.958,0.569-2.996c-0.032-0.599-1.157-1.421-0.714-2.286	c0.513-0.998,1.479,0.083,2.287-0.429c-0.606-2.059,0.046-5.375-2.001-5.996c-1.053,0.888,1.074,2.878-0.714,3.426	c-1.727-0.765-1.327-3.039-1.713-4.708c-0.252-1.103-0.8-2.095-0.854-3.285c-0.029-0.623,0.245-1.352,0.141-1.997	c-0.303-1.925-2.445-3.501-2.571-5.426c-0.058-0.93,0.57-1.716,0.714-2.715c0.101-0.671-0.094-1.428,0-2.142	c0.126-0.904,0.627-1.741,0.713-2.566c0.17-1.572-0.003-4.258-0.284-5.57c-0.354-1.647-1.662-3.05-1.857-4.853	c-0.069-0.648,0.216-1.734,0.144-2.57c-0.068-0.775-0.494-1.54-0.569-2.428c-0.072-0.814,0.202-1.592,0.285-2.569	c0.151-1.792-0.35-3.789-0.285-5.57c0.018-0.527,0.292-0.912,0.285-1.428c-0.018-1.471-0.509-2.956-0.574-4.423	c-0.111-2.715,0.299-4.634-0.14-7.139c-0.332-1.897-0.743-4.802-1.428-5.996c-0.765-1.326-3.767-3.583-5.282-4.427	c-0.998-0.555-2.195-0.75-3.284-1.283c-2.325-1.143-6.832-3.551-7.852-5.855c-0.296-0.664-0.256-1.543-0.573-2.282	c-0.62-1.464-1.929-2.733-2.856-4.143c-1.763-2.693-3.187-6.071-4.997-8.85c-0.915-1.414-1.708-3.014-2.711-4.139	c-0.587-0.664-2.469-1.287-2.711-2.286c-0.32-1.319-1.297-3.133-1.143-4.142c0.206-1.363,2.859-2.466,2.856-3.71	c-0.004-1.056-1.417-1.673-1.713-2.57c-0.721-2.182,0.422-3.465,1.284-5.282c0.285-0.598,0.562-1.557,0.858-1.997	c0.523-0.786,1.586-1.006,2.282-1.857c0.389-0.476,0.635-1.468,1.143-2.141c1.085-1.443,2.837-1.983,3.284-3.285	c0.364-1.06,0.577-6.363,0.141-8.137c-0.249-1.028-1.204-1.882-1.569-2.855c-0.645-1.723-0.797-3.605-2.57-3.57	c-1.096,0.022-1.868,1.234-2.571,1.998c-0.169,1.017-0.079,2.116-1.142,2.426c-1.623,0.48-2.246-1.709-4.139-2.282	c-0.753-0.23-1.954-0.216-2.426-0.429c-1.381-0.62-1.828-2.642-3.285-3.428c-1.218-0.653-2.26-0.426-2.999-1.428	c-0.307-0.689-0.065-1.932-0.141-2.856c-1.565-0.915-2.891-4.329-4.712-5.137c-1.208-0.537-3.057-0.487-4.568-0.998	c-0.71-0.242-1.258-0.552-2-0.714c-0.916-0.206-1.857-0.216-2.568-0.573c-2.826-1.403-4.351-5.949-7.852-5.851	c-1.492,0.039-2.93,1.434-4.283,1.427c-1.344-0.007-3.598-1.074-5.285-1.857c-1.752-0.815-3.692-1.258-5.137-1.997	c-1.168-0.598-1.979-1.691-3-2.145c-0.782-0.346-1.925-0.407-2.567-0.71c-0.912-0.433-1.864-1.356-2.999-2.145	c-1.078-0.747-2.242-1.886-2.286-2.852c-0.047-1.118,1.027-2.07,1.143-3.144c0.368-3.4-2.138-5.844-3.713-7.852	c-1.169-1.493-2.538-2.758-3.71-4.139c0.065-0.916,0.065-1.081,0-1.997c-0.887-0.861-1.634-2.138-2.571-3.428	c-0.847-1.165-2.498-2.405-2.711-3.71c-0.263-1.605,0.609-3.014,0-4.572c-1.017-2.585-4.603-1.417-4.142,2.001	c0.13,0.941,1.456,2.206,1.856,3.141c0.412,0.951,0.332,2.137,0.714,3.284c0.368,1.099,1.475,2.048,1.857,3.284	c0.606,1.954,0.588,4.059,1.143,5.282c0.49,1.085,2.296,2.112,1.283,3.424c-1.352,0.282-1.871-1.07-2.711-1.856	c-0.468-0.437-2.166-1.266-2.426-2.282c-0.217-0.84,0.533-1.972,0.285-3c-0.491-2.015-4.557-2.066-4.572-4.138	c-0.007-1.302,1.702-1.457,1.716-2.715c0.011-1.377-1.878-2.542-2.285-3.71c-0.372-1.071-0.433-2.776-0.57-4.283	c-0.133-1.413,0.04-3.05-0.288-4.143c-0.293-0.98-1.767-2.328-2.712-2.855c-1.25-0.695-2.242-0.407-2.855-1.427	c-0.533-0.891-0.883-2.751-0.999-3.71c-0.205-1.716-0.046-3.594-0.144-5.426c-0.093-1.835-0.281-3.594,0-5.566	c0.707-1.381,1.994-2.062,2.715-3.429c0.501-0.952,0.574-2.127,1.139-3.14c1.046-1.864,3.324-3.587,4.856-5.426	c1.652-1.979,3.173-3.876,4.14-6.14c0.345-0.803,1.275-2.585,1.142-3.569c-0.187-1.373-2.776-2.505-2.57-4.138	c0.129-1.013,1.572-0.999,2.001-1.998c0.22-0.515,0.418-1.954,0.429-2.57c0.021-1.378-0.707-2.812-0.429-4.283	c0.234-1.255,2.101-1.763,1.142-3.14c-0.951-1.363-2.66,0.735-3.713-0.144c-0.966-0.811,0.195-1.792,0.285-3.285	c0.036-0.595-0.346-1.273-0.285-1.713c0.086-0.637,1.331-1.712,0.999-2.141c-0.772-0.977-1.637-3.457-3.285-4.283	c-2.094-1.053-4.362-0.342-7.278-0.858c-1.789-0.314-2.636-1.986-4.284-1.853c-1.016,0.079-1.6,1.244-2.999,1.853	c-1.384,0.606-3.194,0.4-4.568,0.714c-1.363,0.314-2.019,1.255-3.428,1.143c-1.176-0.09-1.183-1.15-2.567-1.284	c-0.541-0.054-1.565,0.335-2.426,0.429c-2.207,0.231-6.191,0.343-8.426-0.144c-2.044-0.443-3.306-1.092-5.566-2.141	c-1.698-0.786-4.849-1.756-4.713-3c0.087-0.8,2.986-1.647,4.14-1.997c1.859-0.566,3.006-1.482,4.426-1.572	c0.549-0.033,1.269,0.339,1.998,0.288c0.732-0.053,1.633-0.728,2.57-0.858c1.994-0.277,4.806,0.101,4.568-1.856	c-1.514-1.197-7.69,0.887-7.852-1.713c-0.097-1.572,2.343-2.047,4.143-2.426c1.636-0.346,4.12-0.93,5.566-0.858	c1.629,0.083,3.774,1.907,4.712-0.141c0.454-1.456-0.555-2.678-0.858-3.857c1.211-1.673,3.443-1.464,5.141-1.713	c1.94-0.285,3.522-0.63,5.425-1.427c1.67-0.7,3.444-1.168,5.423-1.428c1.939-0.253,3.822-0.984,5.57-1.143	c1.438-0.13,2.758-0.014,4.139-0.285c1.222-0.238,2.513-0.915,3.857-0.854c0.898,0.04,1.666,0.696,2.567,0.854	c0.847,0.148,1.817-0.043,2.715,0.145c0.688,0.144,1.309,0.609,1.997,0.714c1.082,0.162,2.243-0.152,3.284,0	c0.959,0.136,1.774,0.735,2.712,0.854c2.199,0.285,4.715-0.116,6.853,0.288c0.811,0.152,1.543,0.552,2.426,0.714	c0.837,0.151,1.756-0.021,2.571,0.141c1.135,0.227,2.084,1.301,3.284,1.427c2.21,0.231,4.69-0.959,6.994-1.143	c1.67-0.13,3.389,0.069,5.141-0.284c1.594-0.321,3.137-0.938,4.568-0.999c0.779-0.033,1.431,0.238,2.142,0.144	c0.738-0.101,1.626-0.988,2.426-0.858c1.063,0.17,0.876,1.514,2.001,1.857c1.244-0.645,2.484,0.043,3.854,0	c1.334-0.047,2.527-0.66,3.998-0.429c2.599,0.407,6.229,2.953,8.277,1.572c0.516-0.35,0.393-0.952,0.859-1.857	c0.631-1.229,1.874-2.675,1.571-4.427c-2.862,0.046-5.595,1.445-8.854,1.572c-3.292-2.063,0.88-3.342,3.284-4.283	c1.983-0.779,3.551-2.506,5.999-2.856c1.998-0.288,4.193,0.44,6.566,0.714c1.384,0.159,2.768-0.097,3.568,0.141	c1.403,0.422,2.124,1.81,3.285,2.141c0.501,0.144,1.323,0.13,1.997,0.289c1.283,0.295,2.434,0.973,3.714,0	c1.005,0.18,1.125,1.251,2.141,1.428c0.948-0.513,1.68-1.814,3.14-2.142c0.635-0.145,1.302,0.108,1.997,0	c1.165-0.188,2.715-1.763,3.429-0.289c-0.292,1.032-1.85,1.186-2.715,2.001c-0.768,0.725-1.95,2.387-1.853,3.141	c0.17,1.362,2.21,0.836,2.282,2.57c-0.303,0.999-1.463,0.552-2.426,0.999c-0.88,0.407-1.208,1.251-2.141,1.427	c-2.596,0.491-4.748-0.652-6.995-0.569c-0.104,0.973,1.111,1.539,1.713,1.853c2.037,1.071,3.695,0.923,6.565,0.858	c1.471-0.033,3.162,0.44,4.427-0.429c0.8-0.548,0.757-1.756,1.428-2.427c0.807-0.803,2.668-1.622,3.854-1.427	c0.649,0.108,1.561,0.879,1.572,1.427c0.021,1.299-1.835,0.884-1.857,2.286c1.208,0.725,4.398-0.793,4.567-2.001	c0.124-0.879-1.038-1.388-0.998-2.282c0.069-1.496,2.102-1.471,1.857-2.999c-0.981-0.772-2.005,0.166-3,0	c-1.402-0.235-2.664-1.915-3.284-3c0.62-0.768,1.919-0.256,2.855-0.14c1.049-1.453,3.004-2.02,5.711-2.286	c0.963-0.094,2.246-0.476,2.714,0.429c0.231,1.352-2.001,2.163-1.571,3.713c1.921,0.48,2.552-2.112,4.142-3.144	c0.699-0.454,1.702-0.756,2.711-1.139c0.88-0.335,1.85-1.164,2.571-1.143c0.789,0.022,0.93,0.671,1.712,0.999	c0.703,0.296,1.622-0.202,1.857,0.714c-1.655,2.866-7.823,1.218-9.424,4.139c0.357,1.957-0.966,3.825,0.144,5.141	c0.793,0.937,2.582,0.299,2.996,1.283c0.559,1.316-1.73,1.316-1.139,2.856c1.51,0.904,3.309-0.862,4.708-1.569	c1.5-0.761,3.396-1.658,3.569-3.429c-0.753-1.449-3.565-0.328-3.994-1.853c-0.235-0.829,0.862-2.685,1.139-2.999	c1.489-1.669,6.687-4.045,10.423-3.713c0.71,0.064,1.427,0.497,2.141,0.573c2.455,0.252,5.354-1.06,7.283,0	c1.55-0.905,3.41,0.122,5.566-0.144c1.662,0.98,1.204,3.068,3.713,3.998c0.682,0.252,1.533,0.072,2.427,0.284	c0.663,0.159,1.38,0.938,2.141,1.288c1.082,0.49,1.911,0.378,2.142,1.139c0.227,0.746-0.786,1.229-0.714,2.001	c0.616,0.508,0.101,1.273,0.429,1.997c0.616,1.323,2.17,1.226,3.71,1.857c1.081,0.443,3.388,1.802,3.284,2.855	c-0.069,0.707-2.167,1.947-2.855,2.286c-0.487,0.238-2.895,1.402-3.71,1.283c-1.348-0.198-1.875-2.927-3.714-2.855	c-0.8,0.032-1.553,0.516-1.571,1.572c-0.029,1.874,2.098,1.947,2.141,3.569c0.058,1.94-1.06,2.073-2.711,3.281	c-1.183-0.48-2.177-1.154-3.714-1.284c-0.912,1.085,1.5,1.475,0.714,2.856c-2.293,0.486-4.041-0.649-6.135-1.284	c-0.657-0.198-1.601-0.119-2.142-0.429c-0.811-0.468-1.049-1.857-1.716-2.57c-0.772-0.83-2.311-2.005-3.569-1.998	c-1.763,0.004-4.316,2.196-5.711,0.141c0.966-3.27,5.545-0.844,8.566-1.998c1.125-0.428,1.511-1.618,2.43-2.141	c1.846-1.052,4.845-1.2,4.568-3.284c-0.141-1.049-1.608-1.035-2.426-1.572c-1.118-0.728-1.973-3.299-3.57-3.425	c-0.821-0.065-1.413,0.631-2.285,0.714c-1.846,0.173-3.901-0.743-5.567,0c-0.775,0.443-0.252,1.153-0.858,1.997	c-0.497,0.692-1.673,0.887-2.141,1.572c-0.548,0.804-0.437,1.803-1.143,2.426c-1.172,1.039-3.652,1.204-5.138,1.713	c-0.663,0.227-1.5,1.005-2.141,1.002c-1.179-0.007-1.684-1.586-3-1.002c-0.115,1.528,1.616,2.148,2.711,2.855	c1.187,0.764,2.434,1.525,2.856,2.855c-1.161,2.466-3.014-0.129-4.853-0.14c-2.026-0.015-4.982,3.857-6.709,0.714	c0.429-1.666,2.264-1.926,2.711-3.57c-2.015,0.343-3.771,2.041-6.139,2.571c-0.996,0.22-1.965,0.166-2.856,0.425	c-1.709,0.501-2.902,1.763-4.708,2.43c-0.707,0.26-1.551,0.18-2.286,0.426c-1.723,0.577-3.789,1.608-5.567,2.57	c-1.816,0.985-3.868,2.019-4.996,3c-0.609,0.526-2.196,2.401-2.142,2.996c0.073,0.85,1.673,1.132,1.713,2	c-0.036,0.527-0.927,1.662-0.285,2.427c0.584,0.695,1.755,0.133,2.996,0.285c2.181,0.27,3.609,2.073,5.281,2.999	c1.266,0.699,3.144,1.532,4.572,1.713c1.961,0.245,4.156-0.574,4.424,0.998c0.259,1.511-1.847,2.051-1.998,3	c1.057,1.395-0.717,2.062-0.714,3.284c0.004,0.992,1.219,2.477,2.282,2.567c1.439,0.123,3.544-1.417,4.143-2.855	c0.71-1.713,0.407-4.034,1.712-5.282c6.652,0.184,12.28-3.021,11.85-9.85c-0.043-0.673-0.425-1.543-0.284-2.285	c0.209-1.103,2.105-2.029,1.853-3.425c1.864-0.573,1.784-3.562,3.713-3.998c1.615-0.364,3.443,1.143,5.567,0.999	c0.692-0.047,1.589-0.667,2.285-0.57c1.396,0.195,2.236,1.914,3.285,2.711c0.926,0.71,1.903,0.483,2.141,1.428	c-0.277,1.6-1.402,1.64-1.287,3.14c0.105,1.309,1.464,2.3,2.141,2.43c1.042,0.194,2.531-0.365,3.57-0.858	c1.91-0.905,3.547-3.631,5.141-3.284c1.258,0.274,2.242,4.272,2.426,5.71c0.198,1.543-0.209,2.722-0.14,4.143	c0.183,2.408,3.215,2.163,4.708,3.424c0.45,0.382,0.627,1.359,1.002,1.857c0.725,0.966,1.601,0.966,1.712,1.997	c0.267,2.466-2.235,2.675-2.001,5.426c-0.515,1.067-1.816,1.002-1.712,2.426c0.166,2.253,3.403,0.527,4.283,2.286	c0.476,0.944-0.079,1.648-0.429,2.996c1.107,1.32,1.1,3.425-0.854,3.428c-1.187,0-1.515-1.275-2.715-1.571	c-0.667-0.166-1.576-0.134-2.427-0.285c-0.728-0.13-1.593-0.346-2.281-0.429c-1.764-0.209-3.671,0.303-4.712-0.714	c1.698-2.257,3.954-4.481,6.139-6.424c0.649-0.581,2.044-0.977,1.713-2.142c-1.215-1.067-2.708,0.065-3.854,0.714	c-1.204,0.678-2.639,1.655-3.998,1.857c-2.362,0.349-5.495-0.693-7.424,0.569c-0.266,1.078,2.196,0.66,1.853,2.286	c-0.944,0.155-1.838,0.231-2.566-0.429c-0.664-0.599-0.285-1.497-0.714-1.857c-0.732-0.605-3.483-0.771-4.712-0.569	c-1.5,0.245-2.827,1.142-3,2.426c1.803,0.843,4.774-0.869,5.426,1.287c-0.988,1.778-3.313,2.754-2.999,5.137	c0.122,0.92,1.214,2.149,2.001,2.286c0.789,0.137,1.232-0.645,1.997-0.573c0.807,0.075,0.624,0.998,1.572,0.858	c1.373-0.588,2.134-2.516,3.709-2.427c1.889,2.293-1.705,3.411-3.709,4.139c-2.286,0.83-5.257,1.269-6.998,2.001	c-0.912,0.382-4.366,3.721-4.853,1.139c-0.349-1.86,1.709-1.323,2.142-2.855c-2.21-0.429-4.269,0.952-6.28,1.716	c-2.87,1.086-7.734,1.774-8.426,4.997c-0.137,0.645,0.282,1.853-0.14,2.282c-0.343,0.346-2.39,0.408-3.285,0.714	c-1.377,0.472-2.578,1.482-3.428,1.713c-0.642,0.176-1.59,0.126-1.998,0.288c-1.135,0.44-1.553,1.975-2.855,2.996	c-0.533,0.418-1.716,0.721-2.141,1.142c-0.74,0.736-0.837,2.579-2.142,2.856c-0.829,0.072-1.503-0.624-2.286-0.144	c-0.093,1.82,0.642,4.297-0.14,6.139c-1.691,1.377-3.548,2.354-5.711,3.569c-1.197,0.675-2.267,0.847-3.713,1.573	c-1.024,0.511-1.961,1.73-3.14,2.426c-2.726,1.604-6.017,3.504-5.996,7.567c0.004,0.88,0.458,1.828,0.57,2.855	c0.068,0.606-0.072,1.197,0,1.857c0.169,1.492,1.251,3.392,0,4.423c-1.922-0.789-4.366-1.056-5.711-2.426	c-0.368-1.409,0.743-2.57,0.573-3.854c-0.136-1.031-1.586-2.866-2.429-2.999c-0.87-0.137-1.67,0.786-2.567,0.714	c-1.068-0.083-2.059-1.554-3.429-1.713c-2.008-0.234-3.486,0.458-5.71,0.144c-2.153,1.151-2.784,3.198-5.423,2.996	c-0.93-0.068-1.781-0.779-2.855-0.998c-1.164-0.242-2.931-0.653-4.142-0.57c-2.431,0.162-4.193,1.911-6.281,2.996	c-1.842,0.959-4.448,2.152-4.997,4.142c-0.299,1.071-0.047,2.578-0.428,3.569c-0.253,0.653-0.805,1.233-1.143,1.853	c-1.601,2.924-2.928,6.789-1.713,10.997c0.18,0.623,1.77,4.142,2.426,4.852c0.736,0.79,2.903,1.976,4.139,1.997	c1.046,0.022,2.272-0.53,3.285-0.714c1.175-0.209,2.646-0.227,3.713-0.569c3.086-0.988,2.477-5.163,5.567-6.569	c1.348-0.609,2.909-0.732,5.281-0.854c0.754,0.634,1.107,1.745,1.002,2.711c-0.079,0.728-0.771,1.388-1.143,2.426	c-0.324,0.912-0.392,1.979-0.713,2.715c-0.426,0.963-1.374,1.665-1.713,2.571c-0.223,0.587-0.101,1.319-0.285,1.853	c-0.328,0.94-1.586,1.604-1.002,2.57c3.057,1.215,6.756-0.346,9.424,0.144c1.125,0.205,3.446,1.55,3.425,3.285	c-0.014,1.297-1.002,2.148-1.143,3.568c-0.173,1.789-0.919,3.977-0.999,5.423c-0.126,2.368,3.476,6.457,5.996,6.424	c2.715-0.036,4.297-2.7,7.567-1.283c1.085,0.469,2.232,2.228,3.429,2.141c0.988-0.072,2.48-1.802,3.14-2.999	c0.804-1.46,0.861-2.689,2.282-3.425c1.532-0.793,2.751-0.411,4.712-1.143c0.876-0.325,1.637-0.883,2.426-1.428	c0.692-0.476,1.421-1.723,2.286-0.858c1.139,1.14-1.395,1.781-0.429,3c1.979,1.049,2.992-1.951,4.427-1.998	c0.458-0.014,2.041,0.891,2.856,1.428c1.113,0.732,1.492,1.759,2.711,1.998c0.782,0.154,2.04-0.3,3.14-0.145	c1.456,0.209,2.325,1.461,3.428,1.428c1.345-0.036,1.99-1.5,3.141-1.712c2.52-0.462,3.457,0.281,4.567,1.856	c1.244,0.216,1.287-1.439,2.426-0.854c-0.623,1.244,0.213,1.817,0.714,2.855c0.325,0.667,0.271,1.139,0.573,1.428	c0.682,0.649,1.998,0.649,2.996,1.283c1.053,0.663,1.648,1.896,2.856,3.285c1.244,1.42,3.334,2.891,4.997,2.996	c1.568,0.1,2.844-0.444,4.142-0.286c2.953,0.365,4.788,1.839,6.854,3.429c1.153,0.887,2.195,1.504,2.567,2.567	c0.259,0.743,0.133,1.738,0.428,2.57c0.631,1.778,3.223,2.636,2.286,5.711c0.429,0.902,1.391,1.226,2.426,1.857	c0.83,0.505,1.529,1.568,2.426,1.712c0.581,0.094,1.212-0.176,1.713-0.144c1.622,0.112,2.737,0.743,4.142,1.287	c0.873,0.336,1.991,0.465,2.571,0.858c0.725,0.49,0.819,2.134,1.713,2.567c0.584,0.285,1.881-0.108,2.855,0	c1.532,0.177,3.612,1.118,4.997,1.143c0.839,0.018,1.535-0.343,2.282-0.285c3.497,0.267,5.479,4.453,8.854,5.711	c1.046,0.389,2.704,0.115,3.425,0.429C248.623,221.722,249.69,225.594,249.784,227.31 M208.955,35.719	c0.703,0.086,1.1-0.137,0.999-0.854C209.32,34.417,208.393,35.005,208.955,35.719 M192.537,21.731c-0.184-0.199-0.674-0.199-0.858,0	V22.3C192.285,22.43,192.396,22.066,192.537,21.731 M162.556,91.826c-0.594-0.58-2.534-0.414-3.857-0.284	c-0.934,0.094-2.044,0.292-2.142,0.998C158.042,93.221,162.092,93.712,162.556,91.826 M155.13,89.4	c1.121-0.883,0.624-2.686-0.57-2.999c-0.468-0.123-1.092,0.346-1.857,0.288c-0.807-0.061-1.615-0.8-2.282-0.858	c-1.139-0.097-2.296,0.465-2.714,0.999c-0.044,0.854,0.627,0.991,0.573,1.856c-1.388,0.992-0.653,4.308,0.714,4.428	c1.449,0.126,2.199-3.667,4.139-3.999C153.836,88.993,154.196,89.515,155.13,89.4 M154.845,183.056	c1.128-0.184,0.8-2.776-0.57-2.145C153.24,181.39,153.778,183.225,154.845,183.056 M153.133,95.111	c-2.03-0.721-3.905,0.49-5.567,0.713c-0.992,0.134-2.798-0.201-2.571,1.284c0.184,1.212,2.056,0.772,3.141,0.429	C150.392,96.824,151.817,96.21,153.133,95.111 M146.852,84.259c2.845-1.211-0.562-4.943-1.857-5.282	c-2.314-0.605-5.606,1.699-8.28,2.427c-1.508,0.411-2.942,0.447-3.285,1.716c1.352,2.235,4.023-0.49,5.996-0.144	c0.998,0.176,1.582,1.543,2.57,1.712C142.67,84.803,146.581,84.374,146.852,84.259 M144.851,86.545	c-0.591-0.696-3.792,0.083-4.712,0.714c-0.63,0.436-1.06,1.5-1.712,2.285c-0.674,0.812-1.428,1.439-1.998,2.142	c-0.515,0.635-3.406,4.805-1.142,5.282c0.966,0.201,2.953-1.803,3.14-2.571c0.645-2.617,1.824-4.485,3.854-5.711	C143.456,87.976,144.66,88.066,144.851,86.545 M138.286,32.723c0.476-0.307,1.204-0.721,0.855-1.428	c-1.576-0.739-4.24-0.177-6.566-0.429c-1.319-1.864-3.525-2.152-3.713,0.858C131.519,33.88,135.542,30.719,138.286,32.723 M127.006,70.556c1.593-0.058,2.671-4.766,0-4.143C125.218,66.832,124.785,70.635,127.006,70.556 M119.298,177.63	c0.072-0.212,0.209-0.36,0.284-0.573C119.15,175.636,117.78,177.576,119.298,177.63 M112.728,47.428	c0.811-0.281,1.936-0.137,2.141-1.002c-0.667-0.533-1.352-1.254-2.141-1.283c-1.035-0.036-1.532,0.879-2.571,1.428	c-1.207,0.638-2.88,0.793-2.996,1.856C109.373,48.86,111.363,47.897,112.728,47.428 M112.015,37.146	c0.913-0.155,1.85,0.257,2.43-0.569c-0.681-3.144-5.029-1.222-7.567-0.999c-0.534,0.894-1.247,1.608-1.428,2.855	C107.419,38.931,109.794,37.525,112.015,37.146 M62.905,78.837c0.674-0.692-0.285-2.156-1.287-1.572	C61.521,77.788,61.802,79.05,62.905,78.837 M58.907,58.136c0.032-0.271-0.162-0.317-0.141-0.573	c-0.436-0.004-0.941-0.083-0.858,0.428C58.114,58.403,58.665,58.475,58.907,58.136" enable-background="new" opacity=".75"/><path fill="#636466" d="M202.815,31.865c0.299,1.269-3.756,2.927-4.142,1.287	C198.366,31.84,201.78,30.199,202.815,31.865" enable-background="new" opacity=".75"/><path fill="#636466" d="M198.104,353.657h-2.142	C196.348,353.423,197.717,353.423,198.104,353.657" enable-background="new" opacity=".75"/><path fill="#636466" d="M191.679,21.731c0.184-0.198,0.674-0.198,0.858,0	c-0.141,0.335-0.253,0.699-0.858,0.569V21.731z" enable-background="new" opacity=".75"/><path fill="#636466" d="M178.974,44.429c0.029,0.786-2.837,2.087-3.144,0.569	c-0.05-0.266,0.015-0.8,0.574-1.139C177.164,43.39,178.945,43.658,178.974,44.429" enable-background="new" opacity=".75"/><path fill="#636466" d="M119.582,177.057c-0.076,0.213-0.212,0.361-0.285,0.573	C117.78,177.576,119.149,175.637,119.582,177.057" enable-background="new" opacity=".75"/><path fill="#636466" d="M61.618,77.265c1.002-0.584,1.961,0.88,1.287,1.572	C61.802,79.05,61.521,77.788,61.618,77.265" enable-background="new" opacity=".75"/><path fill="#636466" d="M58.766,57.563c-0.021,0.256,0.173,0.303,0.141,0.573	c-0.242,0.339-0.793,0.267-0.999-0.144C57.825,57.48,58.33,57.559,58.766,57.563" enable-background="new" opacity=".75"/><path fill="#636466" d="M54.483,65.988c-0.303,0.934-1.128,1.345-2.001,1.712	c-0.274-0.205-0.512-0.443-0.714-0.713C51.83,65.631,53.758,64.633,54.483,65.988" enable-background="new" opacity=".75"/><rect width="741.389" height="341.669" x="6.508" y="11.988" fill="none"/><rect width="741.389" height="341.669" x="6.508" y="11.988" fill="none"/><rect width="792" height="612" x="-24" y="-62" fill="none"/></svg>